<svg width="251" height="81" viewBox="0 0 251 81" fill="none" xmlns="http://www.w3.org/2000/svg">
<path d="M218.816 52.4H198.016L194.048 62H183.424L203.392 17.2H213.632L233.664 62H222.784L218.816 52.4ZM215.552 44.528L208.448 27.376L201.344 44.528H215.552ZM235.688 27.568H245.672V62H235.688V27.568ZM240.68 22.768C238.845 22.768 237.352 22.2347 236.2 21.168C235.048 20.1013 234.472 18.7787 234.472 17.2C234.472 15.6213 235.048 14.2987 236.2 13.232C237.352 12.1653 238.845 11.632 240.68 11.632C242.515 11.632 244.008 12.144 245.16 13.168C246.312 14.192 246.888 15.472 246.888 17.008C246.888 18.672 246.312 20.0587 245.16 21.168C244.008 22.2347 242.515 22.768 240.68 22.768Z" fill="#F5F5F5"/>
<path d="M22.983 50.736H18.887V62H3.78299V17.2H25.351C29.4897 17.2 33.095 17.8827 36.167 19.248C39.239 20.6133 41.607 22.576 43.271 25.136C44.935 27.696 45.767 30.6827 45.767 34.096C45.767 37.296 45.0417 40.0907 43.591 42.48C42.1403 44.8693 40.0497 46.768 37.319 48.176L46.727 62H30.599L22.983 50.736ZM30.535 34.096C30.535 32.432 30.023 31.152 28.999 30.256C27.975 29.3173 26.439 28.848 24.391 28.848H18.887V39.344H24.391C26.439 39.344 27.975 38.896 28.999 38C30.023 37.0613 30.535 35.76 30.535 34.096ZM80.0785 54.192H63.0545L60.0465 62H44.6865L64.2705 17.2H79.1185L98.7025 62H83.0865L80.0785 54.192ZM75.9185 43.312L71.5665 32.048L67.2145 43.312H75.9185ZM143.353 17.2V62H130.937L113.913 41.648V62H99.193V17.2H111.609L128.633 37.552V17.2H143.353ZM166.951 47.152L163.559 50.928V62H148.711V17.2H163.559V33.456L178.279 17.2H194.727L176.807 36.912L195.623 62H178.151L166.951 47.152Z" fill="#C22C29"/>
<path d="M6.92686 71.688H8.58286V73.128H6.97486V78H5.10286V73.128H4.10686V71.688H5.10286V71.4C5.10286 70.664 5.31886 70.08 5.75086 69.648C6.19086 69.216 6.80686 69 7.59886 69C7.87886 69 8.14286 69.032 8.39086 69.096C8.64686 69.152 8.85886 69.236 9.02686 69.348L8.53486 70.704C8.31886 70.552 8.06686 70.476 7.77886 70.476C7.21086 70.476 6.92686 70.788 6.92686 71.412V71.688ZM12.1455 78.096C11.4655 78.096 10.8535 77.956 10.3095 77.676C9.77345 77.388 9.35345 76.992 9.04945 76.488C8.74545 75.984 8.59345 75.412 8.59345 74.772C8.59345 74.132 8.74545 73.56 9.04945 73.056C9.35345 72.552 9.77345 72.16 10.3095 71.88C10.8535 71.592 11.4655 71.448 12.1455 71.448C12.8255 71.448 13.4335 71.592 13.9695 71.88C14.5055 72.16 14.9255 72.552 15.2295 73.056C15.5335 73.56 15.6855 74.132 15.6855 74.772C15.6855 75.412 15.5335 75.984 15.2295 76.488C14.9255 76.992 14.5055 77.388 13.9695 77.676C13.4335 77.956 12.8255 78.096 12.1455 78.096ZM12.1455 76.56C12.6255 76.56 13.0175 76.4 13.3215 76.08C13.6335 75.752 13.7895 75.316 13.7895 74.772C13.7895 74.228 13.6335 73.796 13.3215 73.476C13.0175 73.148 12.6255 72.984 12.1455 72.984C11.6655 72.984 11.2695 73.148 10.9575 73.476C10.6455 73.796 10.4895 74.228 10.4895 74.772C10.4895 75.316 10.6455 75.752 10.9575 76.08C11.2695 76.4 11.6655 76.56 12.1455 76.56ZM18.3647 72.396C18.5887 72.084 18.8887 71.848 19.2647 71.688C19.6487 71.528 20.0887 71.448 20.5847 71.448V73.176C20.3767 73.16 20.2367 73.152 20.1647 73.152C19.6287 73.152 19.2087 73.304 18.9047 73.608C18.6007 73.904 18.4487 74.352 18.4487 74.952V78H16.5767V71.544H18.3647V72.396ZM28.5751 78.144C27.7191 78.144 26.9431 77.96 26.2471 77.592C25.5591 77.216 25.0151 76.7 24.6151 76.044C24.2231 75.38 24.0271 74.632 24.0271 73.8C24.0271 72.968 24.2231 72.224 24.6151 71.568C25.0151 70.904 25.5591 70.388 26.2471 70.02C26.9431 69.644 27.7231 69.456 28.5871 69.456C29.3151 69.456 29.9711 69.584 30.5551 69.84C31.1471 70.096 31.6431 70.464 32.0431 70.944L30.7951 72.096C30.2271 71.44 29.5231 71.112 28.6831 71.112C28.1631 71.112 27.6991 71.228 27.2911 71.46C26.8831 71.684 26.5631 72 26.3311 72.408C26.1071 72.816 25.9951 73.28 25.9951 73.8C25.9951 74.32 26.1071 74.784 26.3311 75.192C26.5631 75.6 26.8831 75.92 27.2911 76.152C27.6991 76.376 28.1631 76.488 28.6831 76.488C29.5231 76.488 30.2271 76.156 30.7951 75.492L32.0431 76.644C31.6431 77.132 31.1471 77.504 30.5551 77.76C29.9631 78.016 29.3031 78.144 28.5751 78.144ZM35.7133 78.096C35.0333 78.096 34.4213 77.956 33.8773 77.676C33.3413 77.388 32.9213 76.992 32.6173 76.488C32.3133 75.984 32.1613 75.412 32.1613 74.772C32.1613 74.132 32.3133 73.56 32.6173 73.056C32.9213 72.552 33.3413 72.16 33.8773 71.88C34.4213 71.592 35.0333 71.448 35.7133 71.448C36.3933 71.448 37.0013 71.592 37.5373 71.88C38.0733 72.16 38.4933 72.552 38.7973 73.056C39.1013 73.56 39.2533 74.132 39.2533 74.772C39.2533 75.412 39.1013 75.984 38.7973 76.488C38.4933 76.992 38.0733 77.388 37.5373 77.676C37.0013 77.956 36.3933 78.096 35.7133 78.096ZM35.7133 76.56C36.1933 76.56 36.5853 76.4 36.8893 76.08C37.2013 75.752 37.3573 75.316 37.3573 74.772C37.3573 74.228 37.2013 73.796 36.8893 73.476C36.5853 73.148 36.1933 72.984 35.7133 72.984C35.2333 72.984 34.8373 73.148 34.5253 73.476C34.2133 73.796 34.0573 74.228 34.0573 74.772C34.0573 75.316 34.2133 75.752 34.5253 76.08C34.8373 76.4 35.2333 76.56 35.7133 76.56ZM44.0685 71.448C44.8685 71.448 45.5125 71.688 46.0005 72.168C46.4965 72.648 46.7445 73.36 46.7445 74.304V78H44.8725V74.592C44.8725 74.08 44.7605 73.7 44.5365 73.452C44.3125 73.196 43.9885 73.068 43.5645 73.068C43.0925 73.068 42.7165 73.216 42.4365 73.512C42.1565 73.8 42.0165 74.232 42.0165 74.808V78H40.1445V71.544H41.9325V72.3C42.1805 72.028 42.4885 71.82 42.8565 71.676C43.2245 71.524 43.6285 71.448 44.0685 71.448ZM54.3722 71.544L51.6482 78H49.7162L47.0042 71.544H48.9362L50.7242 75.936L52.5722 71.544H54.3722ZM60.9243 74.796C60.9243 74.82 60.9123 74.988 60.8883 75.3H56.0043C56.0923 75.7 56.3003 76.016 56.6283 76.248C56.9563 76.48 57.3643 76.596 57.8523 76.596C58.1883 76.596 58.4843 76.548 58.7403 76.452C59.0043 76.348 59.2483 76.188 59.4723 75.972L60.4683 77.052C59.8603 77.748 58.9723 78.096 57.8043 78.096C57.0763 78.096 56.4323 77.956 55.8723 77.676C55.3123 77.388 54.8803 76.992 54.5763 76.488C54.2723 75.984 54.1203 75.412 54.1203 74.772C54.1203 74.14 54.2683 73.572 54.5643 73.068C54.8683 72.556 55.2803 72.16 55.8003 71.88C56.3283 71.592 56.9163 71.448 57.5643 71.448C58.1963 71.448 58.7683 71.584 59.2803 71.856C59.7923 72.128 60.1923 72.52 60.4803 73.032C60.7763 73.536 60.9243 74.124 60.9243 74.796ZM57.5763 72.864C57.1523 72.864 56.7963 72.984 56.5083 73.224C56.2203 73.464 56.0443 73.792 55.9803 74.208H59.1603C59.0963 73.8 58.9203 73.476 58.6323 73.236C58.3443 72.988 57.9923 72.864 57.5763 72.864ZM63.5986 72.396C63.8226 72.084 64.1226 71.848 64.4986 71.688C64.8826 71.528 65.3226 71.448 65.8186 71.448V73.176C65.6106 73.16 65.4706 73.152 65.3986 73.152C64.8626 73.152 64.4426 73.304 64.1386 73.608C63.8346 73.904 63.6826 74.352 63.6826 74.952V78H61.8106V71.544H63.5986V72.396ZM68.7672 78.096C68.2312 78.096 67.7072 78.032 67.1952 77.904C66.6832 77.768 66.2752 77.6 65.9712 77.4L66.5952 76.056C66.8832 76.24 67.2312 76.392 67.6392 76.512C68.0472 76.624 68.4472 76.68 68.8392 76.68C69.6312 76.68 70.0272 76.484 70.0272 76.092C70.0272 75.908 69.9192 75.776 69.7032 75.696C69.4872 75.616 69.1552 75.548 68.7072 75.492C68.1792 75.412 67.7432 75.32 67.3992 75.216C67.0552 75.112 66.7552 74.928 66.4992 74.664C66.2512 74.4 66.1272 74.024 66.1272 73.536C66.1272 73.128 66.2432 72.768 66.4752 72.456C66.7152 72.136 67.0592 71.888 67.5072 71.712C67.9632 71.536 68.4992 71.448 69.1152 71.448C69.5712 71.448 70.0232 71.5 70.4712 71.604C70.9272 71.7 71.3032 71.836 71.5992 72.012L70.9752 73.344C70.4072 73.024 69.7872 72.864 69.1152 72.864C68.7152 72.864 68.4152 72.92 68.2152 73.032C68.0152 73.144 67.9152 73.288 67.9152 73.464C67.9152 73.664 68.0232 73.804 68.2392 73.884C68.4552 73.964 68.7992 74.04 69.2712 74.112C69.7992 74.2 70.2312 74.296 70.5672 74.4C70.9032 74.496 71.1952 74.676 71.4432 74.94C71.6912 75.204 71.8152 75.572 71.8152 76.044C71.8152 76.444 71.6952 76.8 71.4552 77.112C71.2152 77.424 70.8632 77.668 70.3992 77.844C69.9432 78.012 69.3992 78.096 68.7672 78.096ZM72.6102 71.544H74.4822V78H72.6102V71.544ZM73.5462 70.644C73.2022 70.644 72.9222 70.544 72.7062 70.344C72.4902 70.144 72.3822 69.896 72.3822 69.6C72.3822 69.304 72.4902 69.056 72.7062 68.856C72.9222 68.656 73.2022 68.556 73.5462 68.556C73.8902 68.556 74.1702 68.652 74.3862 68.844C74.6022 69.036 74.7102 69.276 74.7102 69.564C74.7102 69.876 74.6022 70.136 74.3862 70.344C74.1702 70.544 73.8902 70.644 73.5462 70.644ZM78.9315 78.096C78.2515 78.096 77.6395 77.956 77.0955 77.676C76.5595 77.388 76.1395 76.992 75.8355 76.488C75.5315 75.984 75.3795 75.412 75.3795 74.772C75.3795 74.132 75.5315 73.56 75.8355 73.056C76.1395 72.552 76.5595 72.16 77.0955 71.88C77.6395 71.592 78.2515 71.448 78.9315 71.448C79.6115 71.448 80.2195 71.592 80.7555 71.88C81.2915 72.16 81.7115 72.552 82.0155 73.056C82.3195 73.56 82.4715 74.132 82.4715 74.772C82.4715 75.412 82.3195 75.984 82.0155 76.488C81.7115 76.992 81.2915 77.388 80.7555 77.676C80.2195 77.956 79.6115 78.096 78.9315 78.096ZM78.9315 76.56C79.4115 76.56 79.8035 76.4 80.1075 76.08C80.4195 75.752 80.5755 75.316 80.5755 74.772C80.5755 74.228 80.4195 73.796 80.1075 73.476C79.8035 73.148 79.4115 72.984 78.9315 72.984C78.4515 72.984 78.0555 73.148 77.7435 73.476C77.4315 73.796 77.2755 74.228 77.2755 74.772C77.2755 75.316 77.4315 75.752 77.7435 76.08C78.0555 76.4 78.4515 76.56 78.9315 76.56ZM87.2868 71.448C88.0868 71.448 88.7308 71.688 89.2188 72.168C89.7148 72.648 89.9628 73.36 89.9628 74.304V78H88.0908V74.592C88.0908 74.08 87.9788 73.7 87.7548 73.452C87.5308 73.196 87.2068 73.068 86.7828 73.068C86.3108 73.068 85.9348 73.216 85.6548 73.512C85.3748 73.8 85.2348 74.232 85.2348 74.808V78H83.3628V71.544H85.1508V72.3C85.3988 72.028 85.7068 71.82 86.0748 71.676C86.4428 71.524 86.8468 71.448 87.2868 71.448ZM92.0077 78.096C91.6797 78.096 91.4037 77.984 91.1797 77.76C90.9557 77.536 90.8437 77.256 90.8437 76.92C90.8437 76.576 90.9557 76.3 91.1797 76.092C91.4037 75.876 91.6797 75.768 92.0077 75.768C92.3357 75.768 92.6117 75.876 92.8357 76.092C93.0597 76.3 93.1717 76.576 93.1717 76.92C93.1717 77.256 93.0597 77.536 92.8357 77.76C92.6117 77.984 92.3357 78.096 92.0077 78.096ZM96.8015 71.448C97.8015 71.448 98.5695 71.688 99.1055 72.168C99.6415 72.64 99.9095 73.356 99.9095 74.316V78H98.1575V77.196C97.8055 77.796 97.1495 78.096 96.1895 78.096C95.6935 78.096 95.2615 78.012 94.8935 77.844C94.5335 77.676 94.2575 77.444 94.0655 77.148C93.8735 76.852 93.7775 76.516 93.7775 76.14C93.7775 75.54 94.0015 75.068 94.4495 74.724C94.9055 74.38 95.6055 74.208 96.5495 74.208H98.0375C98.0375 73.8 97.9135 73.488 97.6655 73.272C97.4175 73.048 97.0455 72.936 96.5495 72.936C96.2055 72.936 95.8655 72.992 95.5295 73.104C95.2015 73.208 94.9215 73.352 94.6895 73.536L94.0175 72.228C94.3695 71.98 94.7895 71.788 95.2775 71.652C95.7735 71.516 96.2815 71.448 96.8015 71.448ZM96.6575 76.836C96.9775 76.836 97.2615 76.764 97.5095 76.62C97.7575 76.468 97.9335 76.248 98.0375 75.96V75.3H96.7535C95.9855 75.3 95.6015 75.552 95.6015 76.056C95.6015 76.296 95.6935 76.488 95.8775 76.632C96.0695 76.768 96.3295 76.836 96.6575 76.836ZM101.244 71.544H103.116V78H101.244V71.544ZM102.18 70.644C101.836 70.644 101.556 70.544 101.34 70.344C101.124 70.144 101.016 69.896 101.016 69.6C101.016 69.304 101.124 69.056 101.34 68.856C101.556 68.656 101.836 68.556 102.18 68.556C102.524 68.556 102.804 68.652 103.02 68.844C103.236 69.036 103.344 69.276 103.344 69.564C103.344 69.876 103.236 70.136 103.02 70.344C102.804 70.544 102.524 70.644 102.18 70.644Z" fill="#F5F5F5"/>
</svg>
